<?xml version="1.0" encoding="UTF-8" standalone="no"?>
<!DOCTYPE svg PUBLIC "-//W3C//DTD SVG 1.1//EN"
 "http://www.w3.org/Graphics/SVG/1.1/DTD/svg11.dtd">
<!-- Generated by graphviz version 12.2.1 (20241206.2353)
 -->
<!-- Title: D:/Personal Projects/Working Title &#45; Kryptos/Krytpos/Engine/KryptosEngine/Include/PlayerClass/Player.h Pages: 1 -->
<svg width="495pt" height="188pt"
 viewBox="0.00 0.00 494.50 188.00" xmlns="http://www.w3.org/2000/svg" xmlns:xlink="http://www.w3.org/1999/xlink">
<g id="graph0" class="graph" transform="scale(1 1) rotate(0) translate(4 184)">
<title>D:/Personal Projects/Working Title &#45; Kryptos/Krytpos/Engine/KryptosEngine/Include/PlayerClass/Player.h</title>
<!-- Node1 -->
<g id="Node000001" class="node">
<title>Node1</title>
<g id="a_Node000001"><a xlink:title=" ">
<polygon fill="#999999" stroke="#666666" points="295.88,-180 143.38,-180 143.38,-124 295.88,-124 295.88,-180"/>
<text text-anchor="start" x="151.38" y="-166.5" font-family="Helvetica,sans-Serif" font-size="10.00">D:/Personal Projects</text>
<text text-anchor="start" x="151.38" y="-154.5" font-family="Helvetica,sans-Serif" font-size="10.00">/Working Title &#45; Kryptos</text>
<text text-anchor="start" x="151.38" y="-142.5" font-family="Helvetica,sans-Serif" font-size="10.00">/Krytpos/Engine/KryptosEngine</text>
<text text-anchor="middle" x="219.62" y="-130.5" font-family="Helvetica,sans-Serif" font-size="10.00">/Include/PlayerClass/Player.h</text>
</a>
</g>
</g>
<!-- Node2 -->
<g id="Node000002" class="node">
<title>Node2</title>
<g id="a_Node000002"><a xlink:href="_game_object_8h.html" target="_top" xlink:title=" ">
<polygon fill="white" stroke="#666666" points="346.38,-88 232.88,-88 232.88,-56 346.38,-56 346.38,-88"/>
<text text-anchor="start" x="240.88" y="-74.5" font-family="Helvetica,sans-Serif" font-size="10.00">../GameObjectSystem</text>
<text text-anchor="middle" x="289.62" y="-62.5" font-family="Helvetica,sans-Serif" font-size="10.00">/GameObject.h</text>
</a>
</g>
</g>
<!-- Node1&#45;&gt;Node2 -->
<g id="edge1_Node000001_Node000002" class="edge">
<title>Node1&#45;&gt;Node2</title>
<g id="a_edge1_Node000001_Node000002"><a xlink:title=" ">
<path fill="none" stroke="#63b8ff" d="M244.11,-123.72C252.07,-114.85 260.83,-105.09 268.52,-96.52"/>
<polygon fill="#63b8ff" stroke="#63b8ff" points="270.98,-99.02 275.06,-89.23 265.77,-94.34 270.98,-99.02"/>
</a>
</g>
</g>
<!-- Node8 -->
<g id="Node000008" class="node">
<title>Node8</title>
<g id="a_Node000008"><a xlink:href="_sprite_renderer_8h.html" target="_top" xlink:title=" ">
<polygon fill="white" stroke="#666666" points="214.88,-88 86.38,-88 86.38,-56 214.88,-56 214.88,-88"/>
<text text-anchor="start" x="94.38" y="-74.5" font-family="Helvetica,sans-Serif" font-size="10.00">../SpriteRenderingSystem</text>
<text text-anchor="middle" x="150.62" y="-62.5" font-family="Helvetica,sans-Serif" font-size="10.00">/SpriteRenderer.h</text>
</a>
</g>
</g>
<!-- Node1&#45;&gt;Node8 -->
<g id="edge7_Node000001_Node000008" class="edge">
<title>Node1&#45;&gt;Node8</title>
<g id="a_edge7_Node000001_Node000008"><a xlink:title=" ">
<path fill="none" stroke="#63b8ff" d="M195.49,-123.72C187.65,-114.85 179.01,-105.09 171.43,-96.52"/>
<polygon fill="#63b8ff" stroke="#63b8ff" points="174.24,-94.41 164.99,-89.24 169,-99.05 174.24,-94.41"/>
</a>
</g>
</g>
<!-- Node3 -->
<g id="Node000003" class="node">
<title>Node3</title>
<g id="a_Node000003"><a xlink:title=" ">
<polygon fill="#e0e0e0" stroke="#999999" points="172.12,-20 69.12,-20 69.12,0 172.12,0 172.12,-20"/>
<text text-anchor="middle" x="120.62" y="-6.5" font-family="Helvetica,sans-Serif" font-size="10.00">SFML/Graphics.hpp</text>
</a>
</g>
</g>
<!-- Node2&#45;&gt;Node3 -->
<g id="edge2_Node000002_Node000003" class="edge">
<title>Node2&#45;&gt;Node3</title>
<g id="a_edge2_Node000002_Node000003"><a xlink:title=" ">
<path fill="none" stroke="#63b8ff" d="M246.1,-55.55C218.8,-45.86 183.98,-33.49 157.94,-24.25"/>
<polygon fill="#63b8ff" stroke="#63b8ff" points="159.39,-21.05 148.8,-21 157.05,-27.65 159.39,-21.05"/>
</a>
</g>
</g>
<!-- Node4 -->
<g id="Node000004" class="node">
<title>Node4</title>
<g id="a_Node000004"><a xlink:title=" ">
<polygon fill="#e0e0e0" stroke="#999999" points="230.62,-20 190.62,-20 190.62,0 230.62,0 230.62,-20"/>
<text text-anchor="middle" x="210.62" y="-6.5" font-family="Helvetica,sans-Serif" font-size="10.00">string</text>
</a>
</g>
</g>
<!-- Node2&#45;&gt;Node4 -->
<g id="edge3_Node000002_Node000004" class="edge">
<title>Node2&#45;&gt;Node4</title>
<g id="a_edge3_Node000002_Node000004"><a xlink:title=" ">
<path fill="none" stroke="#63b8ff" d="M269.28,-55.55C257.85,-46.87 243.6,-36.04 232.01,-27.24"/>
<polygon fill="#63b8ff" stroke="#63b8ff" points="234.3,-24.58 224.22,-21.32 230.06,-30.16 234.3,-24.58"/>
</a>
</g>
</g>
<!-- Node5 -->
<g id="Node000005" class="node">
<title>Node5</title>
<g id="a_Node000005"><a xlink:title=" ">
<polygon fill="#e0e0e0" stroke="#999999" points="331,-20 248.25,-20 248.25,0 331,0 331,-20"/>
<text text-anchor="middle" x="289.62" y="-6.5" font-family="Helvetica,sans-Serif" font-size="10.00">unordered_map</text>
</a>
</g>
</g>
<!-- Node2&#45;&gt;Node5 -->
<g id="edge4_Node000002_Node000005" class="edge">
<title>Node2&#45;&gt;Node5</title>
<g id="a_edge4_Node000002_Node000005"><a xlink:title=" ">
<path fill="none" stroke="#63b8ff" d="M289.62,-55.55C289.62,-48.34 289.62,-39.66 289.62,-31.88"/>
<polygon fill="#63b8ff" stroke="#63b8ff" points="293.13,-31.92 289.63,-21.92 286.13,-31.92 293.13,-31.92"/>
</a>
</g>
</g>
<!-- Node6 -->
<g id="Node000006" class="node">
<title>Node6</title>
<g id="a_Node000006"><a xlink:title=" ">
<polygon fill="#e0e0e0" stroke="#999999" points="406.62,-20 348.62,-20 348.62,0 406.62,0 406.62,-20"/>
<text text-anchor="middle" x="377.62" y="-6.5" font-family="Helvetica,sans-Serif" font-size="10.00">functional</text>
</a>
</g>
</g>
<!-- Node2&#45;&gt;Node6 -->
<g id="edge5_Node000002_Node000006" class="edge">
<title>Node2&#45;&gt;Node6</title>
<g id="a_edge5_Node000002_Node000006"><a xlink:title=" ">
<path fill="none" stroke="#63b8ff" d="M312.29,-55.55C325.27,-46.69 341.53,-35.61 354.58,-26.71"/>
<polygon fill="#63b8ff" stroke="#63b8ff" points="356.29,-29.79 362.58,-21.26 352.34,-24 356.29,-29.79"/>
</a>
</g>
</g>
<!-- Node7 -->
<g id="Node000007" class="node">
<title>Node7</title>
<g id="a_Node000007"><a xlink:title=" ">
<polygon fill="#e0e0e0" stroke="#999999" points="486.5,-20 424.75,-20 424.75,0 486.5,0 486.5,-20"/>
<text text-anchor="middle" x="455.62" y="-6.5" font-family="Helvetica,sans-Serif" font-size="10.00">type_traits</text>
</a>
</g>
</g>
<!-- Node2&#45;&gt;Node7 -->
<g id="edge6_Node000002_Node000007" class="edge">
<title>Node2&#45;&gt;Node7</title>
<g id="a_edge6_Node000002_Node000007"><a xlink:title=" ">
<path fill="none" stroke="#63b8ff" d="M332.37,-55.55C359.15,-45.87 393.3,-33.53 418.87,-24.29"/>
<polygon fill="#63b8ff" stroke="#63b8ff" points="419.96,-27.61 428.17,-20.92 417.58,-21.03 419.96,-27.61"/>
</a>
</g>
</g>
<!-- Node8&#45;&gt;Node3 -->
<g id="edge8_Node000008_Node000003" class="edge">
<title>Node8&#45;&gt;Node3</title>
<g id="a_edge8_Node000008_Node000003"><a xlink:title=" ">
<path fill="none" stroke="#63b8ff" d="M142.9,-55.55C139.08,-47.91 134.43,-38.61 130.37,-30.49"/>
<polygon fill="#63b8ff" stroke="#63b8ff" points="133.61,-29.14 126.01,-21.76 127.35,-32.27 133.61,-29.14"/>
</a>
</g>
</g>
<!-- Node8&#45;&gt;Node4 -->
<g id="edge9_Node000008_Node000004" class="edge">
<title>Node8&#45;&gt;Node4</title>
<g id="a_edge9_Node000008_Node000004"><a xlink:title=" ">
<path fill="none" stroke="#63b8ff" d="M166.08,-55.55C174.41,-47.22 184.72,-36.91 193.32,-28.3"/>
<polygon fill="#63b8ff" stroke="#63b8ff" points="195.55,-31.02 200.15,-21.48 190.6,-26.07 195.55,-31.02"/>
</a>
</g>
</g>
<!-- Node8&#45;&gt;Node5 -->
<g id="edge10_Node000008_Node000005" class="edge">
<title>Node8&#45;&gt;Node5</title>
<g id="a_edge10_Node000008_Node000005"><a xlink:title=" ">
<path fill="none" stroke="#63b8ff" d="M186.42,-55.55C208.34,-46.09 236.16,-34.08 257.39,-24.91"/>
<polygon fill="#63b8ff" stroke="#63b8ff" points="258.65,-28.18 266.44,-21.01 255.87,-21.76 258.65,-28.18"/>
</a>
</g>
</g>
<!-- Node9 -->
<g id="Node000009" class="node">
<title>Node9</title>
<g id="a_Node000009"><a xlink:title=" ">
<polygon fill="#e0e0e0" stroke="#999999" points="51.25,-20 0,-20 0,0 51.25,0 51.25,-20"/>
<text text-anchor="middle" x="25.62" y="-6.5" font-family="Helvetica,sans-Serif" font-size="10.00">memory</text>
</a>
</g>
</g>
<!-- Node8&#45;&gt;Node9 -->
<g id="edge11_Node000008_Node000009" class="edge">
<title>Node8&#45;&gt;Node9</title>
<g id="a_edge11_Node000008_Node000009"><a xlink:title=" ">
<path fill="none" stroke="#63b8ff" d="M118.43,-55.55C98.99,-46.22 74.39,-34.41 55.4,-25.29"/>
<polygon fill="#63b8ff" stroke="#63b8ff" points="57.12,-22.23 46.59,-21.06 54.09,-28.55 57.12,-22.23"/>
</a>
</g>
</g>
</g>
</svg>
