<?xml version="1.0" encoding="UTF-8" standalone="no"?>
<!DOCTYPE svg PUBLIC "-//W3C//DTD SVG 1.1//EN"
 "http://www.w3.org/Graphics/SVG/1.1/DTD/svg11.dtd">
<!-- Generated by graphviz version 12.2.1 (20241206.2353)
 -->
<!-- Title: GameObjectManager::getInstance Pages: 1 -->
<svg width="421pt" height="116pt"
 viewBox="0.00 0.00 421.25 116.00" xmlns="http://www.w3.org/2000/svg" xmlns:xlink="http://www.w3.org/1999/xlink">
<g id="graph0" class="graph" transform="scale(1 1) rotate(0) translate(4 112)">
<title>GameObjectManager::getInstance</title>
<!-- Node1 -->
<g id="Node000001" class="node">
<title>Node1</title>
<g id="a_Node000001"><a xlink:title="Provides access to the singleton instance of GameObjectManager.">
<polygon fill="#999999" stroke="#666666" points="413.25,-64 299,-64 299,-32 413.25,-32 413.25,-64"/>
<text text-anchor="start" x="307" y="-50.5" font-family="Helvetica,sans-Serif" font-size="10.00">GameObjectManager::</text>
<text text-anchor="middle" x="356.12" y="-38.5" font-family="Helvetica,sans-Serif" font-size="10.00">getInstance</text>
</a>
</g>
</g>
<!-- Node2 -->
<g id="Node000002" class="node">
<title>Node2</title>
<g id="a_Node000002"><a xlink:href="class_kryptos_engine_1_1_debug_window_1_1_debug_window.html#abc5bad14d7c81fdc9e7acb2b3d9e34b7" target="_top" xlink:title="Renders the debug interface. Iterates through active game objects and displays relevant data....">
<polygon fill="white" stroke="#666666" points="263,-108 113.5,-108 113.5,-76 263,-76 263,-108"/>
<text text-anchor="start" x="121.5" y="-94.5" font-family="Helvetica,sans-Serif" font-size="10.00">KryptosEngine::DebugWindow</text>
<text text-anchor="middle" x="188.25" y="-82.5" font-family="Helvetica,sans-Serif" font-size="10.00">::DebugWindow::draw</text>
</a>
</g>
</g>
<!-- Node1&#45;&gt;Node2 -->
<g id="edge1_Node000001_Node000002" class="edge">
<title>Node1&#45;&gt;Node2</title>
<g id="a_edge1_Node000001_Node000002"><a xlink:title=" ">
<path fill="none" stroke="#63b8ff" d="M287.63,-65.9C275.61,-69.09 263.15,-72.4 251.3,-75.54"/>
<polygon fill="#63b8ff" stroke="#63b8ff" points="288.27,-69.35 297.04,-63.41 286.48,-62.59 288.27,-69.35"/>
</a>
</g>
</g>
<!-- Node3 -->
<g id="Node000003" class="node">
<title>Node3</title>
<g id="a_Node000003"><a xlink:href="class_game_object.html#a98b8d66c6cbeb852fc5cc8ef4f2b99c6" target="_top" xlink:title="Constructs a GameObject with specified properties.">
<polygon fill="white" stroke="#666666" points="254,-58 122.5,-58 122.5,-38 254,-38 254,-58"/>
<text text-anchor="middle" x="188.25" y="-44.5" font-family="Helvetica,sans-Serif" font-size="10.00">GameObject::GameObject</text>
</a>
</g>
</g>
<!-- Node1&#45;&gt;Node3 -->
<g id="edge2_Node000001_Node000003" class="edge">
<title>Node1&#45;&gt;Node3</title>
<g id="a_edge2_Node000001_Node000003"><a xlink:title=" ">
<path fill="none" stroke="#63b8ff" d="M287,-48C276.25,-48 265.15,-48 254.47,-48"/>
<polygon fill="#63b8ff" stroke="#63b8ff" points="286.99,-51.5 296.99,-48 286.99,-44.5 286.99,-51.5"/>
</a>
</g>
</g>
<!-- Node5 -->
<g id="Node000005" class="node">
<title>Node5</title>
<g id="a_Node000005"><a xlink:href="class_game_object.html#ab82dfdb656f9051c0587e6593b2dda97" target="_top" xlink:title="Destructor for GameObject. Unregisters the object from the GameObjectManager.">
<polygon fill="white" stroke="#666666" points="257,-20 119.5,-20 119.5,0 257,0 257,-20"/>
<text text-anchor="middle" x="188.25" y="-6.5" font-family="Helvetica,sans-Serif" font-size="10.00">GameObject::~GameObject</text>
</a>
</g>
</g>
<!-- Node1&#45;&gt;Node5 -->
<g id="edge4_Node000001_Node000005" class="edge">
<title>Node1&#45;&gt;Node5</title>
<g id="a_edge4_Node000001_Node000005"><a xlink:title=" ">
<path fill="none" stroke="#63b8ff" d="M287.37,-32.48C269.72,-28.43 251.12,-24.17 234.91,-20.46"/>
<polygon fill="#63b8ff" stroke="#63b8ff" points="286.5,-35.87 297.03,-34.69 288.06,-29.05 286.5,-35.87"/>
</a>
</g>
</g>
<!-- Node4 -->
<g id="Node000004" class="node">
<title>Node4</title>
<g id="a_Node000004"><a xlink:href="class_player.html#ae31c0ce97eab32c57f484d1162c03ad1" target="_top" xlink:title="Constructs a Player object.">
<polygon fill="white" stroke="#666666" points="77.5,-58 0,-58 0,-38 77.5,-38 77.5,-58"/>
<text text-anchor="middle" x="38.75" y="-44.5" font-family="Helvetica,sans-Serif" font-size="10.00">Player::Player</text>
</a>
</g>
</g>
<!-- Node3&#45;&gt;Node4 -->
<g id="edge3_Node000003_Node000004" class="edge">
<title>Node3&#45;&gt;Node4</title>
<g id="a_edge3_Node000003_Node000004"><a xlink:title=" ">
<path fill="none" stroke="#63b8ff" d="M110.73,-48C99.32,-48 88,-48 77.87,-48"/>
<polygon fill="#63b8ff" stroke="#63b8ff" points="110.61,-51.5 120.61,-48 110.61,-44.5 110.61,-51.5"/>
</a>
</g>
</g>
</g>
</svg>
