<?xml version="1.0" encoding="UTF-8" standalone="no"?>
<!DOCTYPE svg PUBLIC "-//W3C//DTD SVG 1.1//EN"
 "http://www.w3.org/Graphics/SVG/1.1/DTD/svg11.dtd">
<!-- Generated by graphviz version 12.2.1 (20241206.2353)
 -->
<!-- Title: GameObjectManager::GameObjectManager Pages: 1 -->
<svg width="572pt" height="140pt"
 viewBox="0.00 0.00 571.50 140.00" xmlns="http://www.w3.org/2000/svg" xmlns:xlink="http://www.w3.org/1999/xlink">
<g id="graph0" class="graph" transform="scale(1 1) rotate(0) translate(4 136)">
<title>GameObjectManager::GameObjectManager</title>
<!-- Node1 -->
<g id="Node000001" class="node">
<title>Node1</title>
<g id="a_Node000001"><a xlink:title="Private constructor to enforce singleton pattern.">
<polygon fill="#999999" stroke="#666666" points="563.5,-82 449.25,-82 449.25,-50 563.5,-50 563.5,-82"/>
<text text-anchor="start" x="457.25" y="-68.5" font-family="Helvetica,sans-Serif" font-size="10.00">GameObjectManager::</text>
<text text-anchor="middle" x="506.38" y="-56.5" font-family="Helvetica,sans-Serif" font-size="10.00">GameObjectManager</text>
</a>
</g>
</g>
<!-- Node2 -->
<g id="Node000002" class="node">
<title>Node2</title>
<g id="a_Node000002"><a xlink:href="class_game_object_manager.html#a82f3274e89d13c1463ebb6ba2fa5db79" target="_top" xlink:title="Deleted copy constructor to prevent copying the singleton instance.">
<polygon fill="white" stroke="#666666" points="413.25,-132 299,-132 299,-100 413.25,-100 413.25,-132"/>
<text text-anchor="start" x="307" y="-118.5" font-family="Helvetica,sans-Serif" font-size="10.00">GameObjectManager::</text>
<text text-anchor="middle" x="356.12" y="-106.5" font-family="Helvetica,sans-Serif" font-size="10.00">GameObjectManager</text>
</a>
</g>
</g>
<!-- Node1&#45;&gt;Node2 -->
<g id="edge1_Node000001_Node000002" class="edge">
<title>Node1&#45;&gt;Node2</title>
<g id="a_edge1_Node000001_Node000002"><a xlink:title=" ">
<path fill="none" stroke="#63b8ff" d="M446.3,-85.92C432.95,-90.43 418.91,-95.16 406.03,-99.51"/>
<polygon fill="#63b8ff" stroke="#63b8ff" points="447.04,-89.37 455.4,-82.86 444.8,-82.73 447.04,-89.37"/>
</a>
</g>
</g>
<!-- Node3 -->
<g id="Node000003" class="node">
<title>Node3</title>
<g id="a_Node000003"><a xlink:href="class_game_object_manager.html#a86e915794a703ba492d4f336351c0389" target="_top" xlink:title="Provides access to the singleton instance of GameObjectManager.">
<polygon fill="white" stroke="#666666" points="413.25,-82 299,-82 299,-50 413.25,-50 413.25,-82"/>
<text text-anchor="start" x="307" y="-68.5" font-family="Helvetica,sans-Serif" font-size="10.00">GameObjectManager::</text>
<text text-anchor="middle" x="356.12" y="-56.5" font-family="Helvetica,sans-Serif" font-size="10.00">getInstance</text>
</a>
</g>
</g>
<!-- Node1&#45;&gt;Node3 -->
<g id="edge2_Node000001_Node000003" class="edge">
<title>Node1&#45;&gt;Node3</title>
<g id="a_edge2_Node000001_Node000003"><a xlink:title=" ">
<path fill="none" stroke="#63b8ff" d="M437.59,-66C429.51,-66 421.33,-66 413.44,-66"/>
<polygon fill="#63b8ff" stroke="#63b8ff" points="437.39,-69.5 447.39,-66 437.39,-62.5 437.39,-69.5"/>
</a>
</g>
</g>
<!-- Node8 -->
<g id="Node000008" class="node">
<title>Node8</title>
<g id="a_Node000008"><a xlink:href="class_game_object_manager.html#aec8da28a6f0da76621a0f72680eaf7c8" target="_top" xlink:title="Deleted assignment operator to prevent copying the singleton instance.">
<polygon fill="white" stroke="#666666" points="413.25,-32 299,-32 299,0 413.25,0 413.25,-32"/>
<text text-anchor="start" x="307" y="-18.5" font-family="Helvetica,sans-Serif" font-size="10.00">GameObjectManager::</text>
<text text-anchor="middle" x="356.12" y="-6.5" font-family="Helvetica,sans-Serif" font-size="10.00">operator=</text>
</a>
</g>
</g>
<!-- Node1&#45;&gt;Node8 -->
<g id="edge7_Node000001_Node000008" class="edge">
<title>Node1&#45;&gt;Node8</title>
<g id="a_edge7_Node000001_Node000008"><a xlink:title=" ">
<path fill="none" stroke="#63b8ff" d="M446.3,-46.08C432.95,-41.57 418.91,-36.84 406.03,-32.49"/>
<polygon fill="#63b8ff" stroke="#63b8ff" points="444.8,-49.27 455.4,-49.14 447.04,-42.63 444.8,-49.27"/>
</a>
</g>
</g>
<!-- Node4 -->
<g id="Node000004" class="node">
<title>Node4</title>
<g id="a_Node000004"><a xlink:href="class_kryptos_engine_1_1_debug_window_1_1_debug_window.html#abc5bad14d7c81fdc9e7acb2b3d9e34b7" target="_top" xlink:title="Renders the debug interface. Iterates through active game objects and displays relevant data....">
<polygon fill="white" stroke="#666666" points="263,-126 113.5,-126 113.5,-94 263,-94 263,-126"/>
<text text-anchor="start" x="121.5" y="-112.5" font-family="Helvetica,sans-Serif" font-size="10.00">KryptosEngine::DebugWindow</text>
<text text-anchor="middle" x="188.25" y="-100.5" font-family="Helvetica,sans-Serif" font-size="10.00">::DebugWindow::draw</text>
</a>
</g>
</g>
<!-- Node3&#45;&gt;Node4 -->
<g id="edge3_Node000003_Node000004" class="edge">
<title>Node3&#45;&gt;Node4</title>
<g id="a_edge3_Node000003_Node000004"><a xlink:title=" ">
<path fill="none" stroke="#63b8ff" d="M287.63,-83.9C275.61,-87.09 263.15,-90.4 251.3,-93.54"/>
<polygon fill="#63b8ff" stroke="#63b8ff" points="288.27,-87.35 297.04,-81.41 286.48,-80.59 288.27,-87.35"/>
</a>
</g>
</g>
<!-- Node5 -->
<g id="Node000005" class="node">
<title>Node5</title>
<g id="a_Node000005"><a xlink:href="class_game_object.html#a98b8d66c6cbeb852fc5cc8ef4f2b99c6" target="_top" xlink:title="Constructs a GameObject with specified properties.">
<polygon fill="white" stroke="#666666" points="254,-76 122.5,-76 122.5,-56 254,-56 254,-76"/>
<text text-anchor="middle" x="188.25" y="-62.5" font-family="Helvetica,sans-Serif" font-size="10.00">GameObject::GameObject</text>
</a>
</g>
</g>
<!-- Node3&#45;&gt;Node5 -->
<g id="edge4_Node000003_Node000005" class="edge">
<title>Node3&#45;&gt;Node5</title>
<g id="a_edge4_Node000003_Node000005"><a xlink:title=" ">
<path fill="none" stroke="#63b8ff" d="M287,-66C276.25,-66 265.15,-66 254.47,-66"/>
<polygon fill="#63b8ff" stroke="#63b8ff" points="286.99,-69.5 296.99,-66 286.99,-62.5 286.99,-69.5"/>
</a>
</g>
</g>
<!-- Node7 -->
<g id="Node000007" class="node">
<title>Node7</title>
<g id="a_Node000007"><a xlink:href="class_game_object.html#ab82dfdb656f9051c0587e6593b2dda97" target="_top" xlink:title="Destructor for GameObject. Unregisters the object from the GameObjectManager.">
<polygon fill="white" stroke="#666666" points="257,-38 119.5,-38 119.5,-18 257,-18 257,-38"/>
<text text-anchor="middle" x="188.25" y="-24.5" font-family="Helvetica,sans-Serif" font-size="10.00">GameObject::~GameObject</text>
</a>
</g>
</g>
<!-- Node3&#45;&gt;Node7 -->
<g id="edge6_Node000003_Node000007" class="edge">
<title>Node3&#45;&gt;Node7</title>
<g id="a_edge6_Node000003_Node000007"><a xlink:title=" ">
<path fill="none" stroke="#63b8ff" d="M287.37,-50.48C269.72,-46.43 251.12,-42.17 234.91,-38.46"/>
<polygon fill="#63b8ff" stroke="#63b8ff" points="286.5,-53.87 297.03,-52.69 288.06,-47.05 286.5,-53.87"/>
</a>
</g>
</g>
<!-- Node6 -->
<g id="Node000006" class="node">
<title>Node6</title>
<g id="a_Node000006"><a xlink:href="class_player.html#ae31c0ce97eab32c57f484d1162c03ad1" target="_top" xlink:title="Constructs a Player object.">
<polygon fill="white" stroke="#666666" points="77.5,-76 0,-76 0,-56 77.5,-56 77.5,-76"/>
<text text-anchor="middle" x="38.75" y="-62.5" font-family="Helvetica,sans-Serif" font-size="10.00">Player::Player</text>
</a>
</g>
</g>
<!-- Node5&#45;&gt;Node6 -->
<g id="edge5_Node000005_Node000006" class="edge">
<title>Node5&#45;&gt;Node6</title>
<g id="a_edge5_Node000005_Node000006"><a xlink:title=" ">
<path fill="none" stroke="#63b8ff" d="M110.73,-66C99.32,-66 88,-66 77.87,-66"/>
<polygon fill="#63b8ff" stroke="#63b8ff" points="110.61,-69.5 120.61,-66 110.61,-62.5 110.61,-69.5"/>
</a>
</g>
</g>
</g>
</svg>
