<?xml version="1.0" encoding="UTF-8" standalone="no"?>
<!DOCTYPE svg PUBLIC "-//W3C//DTD SVG 1.1//EN"
 "http://www.w3.org/Graphics/SVG/1.1/DTD/svg11.dtd">
<!-- Generated by graphviz version 12.2.1 (20241206.2353)
 -->
<!-- Title: KryptosEngine::SpriteRendererLogger::GetLogger Pages: 1 -->
<svg width="348pt" height="116pt"
 viewBox="0.00 0.00 347.50 116.00" xmlns="http://www.w3.org/2000/svg" xmlns:xlink="http://www.w3.org/1999/xlink">
<g id="graph0" class="graph" transform="scale(1 1) rotate(0) translate(4 112)">
<title>KryptosEngine::SpriteRendererLogger::GetLogger</title>
<!-- Node1 -->
<g id="Node000001" class="node">
<title>Node1</title>
<g id="a_Node000001"><a xlink:title=" ">
<polygon fill="#999999" stroke="#666666" points="339.5,-64 188.5,-64 188.5,-32 339.5,-32 339.5,-64"/>
<text text-anchor="start" x="196.5" y="-50.5" font-family="Helvetica,sans-Serif" font-size="10.00">KryptosEngine::SpriteRenderer</text>
<text text-anchor="middle" x="264" y="-38.5" font-family="Helvetica,sans-Serif" font-size="10.00">Logger::GetLogger</text>
</a>
</g>
</g>
<!-- Node2 -->
<g id="Node000002" class="node">
<title>Node2</title>
<g id="a_Node000002"><a xlink:href="class_kryptos_engine_1_1_engine_init.html#a40c6f6dbfbc0f67458af9c7ec5418a3d" target="_top" xlink:title="Initializes all engine systems.">
<polygon fill="white" stroke="#666666" points="140.88,-108 11.62,-108 11.62,-76 140.88,-76 140.88,-108"/>
<text text-anchor="start" x="19.62" y="-94.5" font-family="Helvetica,sans-Serif" font-size="10.00">KryptosEngine::EngineInit</text>
<text text-anchor="middle" x="76.25" y="-82.5" font-family="Helvetica,sans-Serif" font-size="10.00">::Initialise</text>
</a>
</g>
</g>
<!-- Node1&#45;&gt;Node2 -->
<g id="edge1_Node000001_Node000002" class="edge">
<title>Node1&#45;&gt;Node2</title>
<g id="a_edge1_Node000001_Node000002"><a xlink:title=" ">
<path fill="none" stroke="#63b8ff" d="M182.55,-67.06C168.68,-70.34 154.43,-73.72 141.08,-76.88"/>
<polygon fill="#63b8ff" stroke="#63b8ff" points="183.17,-70.51 192.1,-64.8 181.56,-63.69 183.17,-70.51"/>
</a>
</g>
</g>
<!-- Node3 -->
<g id="Node000003" class="node">
<title>Node3</title>
<g id="a_Node000003"><a xlink:href="class_sprite_renderer.html#a965f9f9b79fe5da804d6465c0e1be82b" target="_top" xlink:title="Loads a texture from a file and sets it for the sprite.">
<polygon fill="white" stroke="#666666" points="145,-58 7.5,-58 7.5,-38 145,-38 145,-58"/>
<text text-anchor="middle" x="76.25" y="-44.5" font-family="Helvetica,sans-Serif" font-size="10.00">SpriteRenderer::loadTexture</text>
</a>
</g>
</g>
<!-- Node1&#45;&gt;Node3 -->
<g id="edge2_Node000001_Node000003" class="edge">
<title>Node1&#45;&gt;Node3</title>
<g id="a_edge2_Node000001_Node000003"><a xlink:title=" ">
<path fill="none" stroke="#63b8ff" d="M176.83,-48C166.23,-48 155.52,-48 145.24,-48"/>
<polygon fill="#63b8ff" stroke="#63b8ff" points="176.74,-51.5 186.74,-48 176.74,-44.5 176.74,-51.5"/>
</a>
</g>
</g>
<!-- Node4 -->
<g id="Node000004" class="node">
<title>Node4</title>
<g id="a_Node000004"><a xlink:href="class_sprite_renderer.html#a36dfdced4b9a09a1defdb73e2a90dadd" target="_top" xlink:title="Constructs a SpriteRenderer object. Initializes the sprite and texture pointers to nullptr.">
<polygon fill="white" stroke="#666666" points="152.5,-20 0,-20 0,0 152.5,0 152.5,-20"/>
<text text-anchor="middle" x="76.25" y="-6.5" font-family="Helvetica,sans-Serif" font-size="10.00">SpriteRenderer::SpriteRenderer</text>
</a>
</g>
</g>
<!-- Node1&#45;&gt;Node4 -->
<g id="edge3_Node000001_Node000004" class="edge">
<title>Node1&#45;&gt;Node4</title>
<g id="a_edge3_Node000001_Node000004"><a xlink:title=" ">
<path fill="none" stroke="#63b8ff" d="M177.35,-30.48C160.65,-27.06 143.64,-23.58 128.49,-20.48"/>
<polygon fill="#63b8ff" stroke="#63b8ff" points="176.27,-33.83 186.77,-32.4 177.67,-26.97 176.27,-33.83"/>
</a>
</g>
</g>
</g>
</svg>
